<svg xmlns="http://www.w3.org/2000/svg" width="84.133" height="84.129" viewBox="0 0 84.133 84.129"><g transform="translate(2 2)"><path d="M177.415,728.813h0a2,2,0,0,1-1.414-.586l-12.869-12.87a2,2,0,0,1,0-2.827c.4-.4,40.042-40.148,42.6-42.7,1.889-1.889,5.834-3.593,12.06-5.206,4.4-1.14,8.252-1.786,8.414-1.813a2,2,0,0,1,2.3,2.3c-.027.162-.673,4.015-1.813,8.412-1.614,6.225-3.319,10.169-5.211,12.059l-42.651,42.648A2,2,0,0,1,177.415,728.813Zm-10.042-14.871,10.042,10.043,41.238-41.235a11.915,11.915,0,0,0,2.2-3.971,54.971,54.971,0,0,0,1.962-6.234c.505-1.947.914-3.808,1.209-5.254-1.446.295-3.309.7-5.256,1.209a55.08,55.08,0,0,0-6.236,1.962,11.927,11.927,0,0,0-3.971,2.193C206.278,674.933,174.5,706.792,167.373,713.942Z" transform="translate(-146.399 -664.78)" fill="#4b8b89"/><path d="M12.887,14.9a1.994,1.994,0,0,1-1.415-.587L-1.415,1.413a2,2,0,0,1,0-2.828,2,2,0,0,1,2.828,0L14.3,11.488A2,2,0,0,1,12.887,14.9Z" transform="translate(23.304 43.962)" fill="#4b8b89"/><path d="M179,752.163a2,2,0,0,1-1.986-2.232l2.4-20.491a2,2,0,0,1,3.973.464l-1.728,14.775,8.854-8.854a23.169,23.169,0,0,0,4.69-6.976c.444-1.333,1.19-5.205,1.19-16.163a2,2,0,0,1,4,0c0,8.788-.469,14.651-1.4,17.428-.995,2.983-3.906,6.789-5.656,8.539l-12.923,12.923A2,2,0,0,1,179,752.163Z" transform="translate(-147.984 -670.034)" fill="#4b8b89"/><path d="M144.162,719.552a2,2,0,0,1-1.413-3.414l12.923-12.923c1.779-1.778,5.491-4.78,8.428-5.762,3.538-1.179,11.381-1.3,16.973-1.286h.57a2,2,0,0,1,0,4l-1.606,0c-1.756,0-4.314.016-6.917.134-4.694.212-6.807.632-7.754.948-1.918.642-5.058,2.99-6.866,4.8l-8.819,8.819,14.858-1.816a2,2,0,0,1,.485,3.97l-20.619,2.521A2.009,2.009,0,0,1,144.162,719.552Z" transform="translate(-144.163 -668.442)" fill="#4b8b89"/><path d="M145.612,752.492a2,2,0,0,1-1.943-2.474c.043-.178,1.08-4.41,2.576-9.155.886-2.811,1.749-5.213,2.565-7.139a17.482,17.482,0,0,1,3.143-5.379c3.941-3.939,8.714-4.458,11.878-1.293A2,2,0,0,1,161,729.881a2.8,2.8,0,0,0-2.652-.834,7.234,7.234,0,0,0-3.569,2.128c-.565.565-2.156,2.758-4.715,10.872-.651,2.065-1.22,4.057-1.65,5.633,1.57-.435,3.554-1.008,5.61-1.664,8.094-2.582,10.286-4.178,10.852-4.744.627-.627,3.637-3.876,1.292-6.221A2,2,0,1,1,169,732.222a6.808,6.808,0,0,1,1.924,6.222,11.035,11.035,0,0,1-3.217,5.655,17.579,17.579,0,0,1-5.366,3.15c-1.921.82-4.317,1.689-7.119,2.583-4.732,1.509-8.951,2.558-9.128,2.6A2,2,0,0,1,145.612,752.492Z" transform="translate(-144.322 -671.603)" fill="#4b8b89"/></g></svg>