<svg xmlns="http://www.w3.org/2000/svg" width="84.129" height="89.932" viewBox="0 0 84.129 89.932"><g transform="translate(2 2)"><g transform="translate(0)"><g transform="translate(0 28.096)"><g transform="translate(0 0)"><path d="M0-2H20.9a2,2,0,0,1,2,2V10.451a2,2,0,0,1-2,2H0a2,2,0,0,1-2-2V0A2,2,0,0,1,0-2ZM18.9,2H2V8.451H18.9Z" transform="translate(48.774 47.385)" fill="#4b8b89"/><path d="M497.42,730.919a2,2,0,0,1-2-2v-15.7a2,2,0,0,1,.083-.569c.127-.429,3.144-10.545,5.571-14.314a6.379,6.379,0,0,1,2.987-2.575,4.76,4.76,0,0,1,3.618.029c2.1.9,3.813,3.514,2.9,7.349l-.84,3.666,4.843-4.843a51.189,51.189,0,0,1,1.794-14.505c1-3.167,2.443-5.426,4.282-6.715a5.973,5.973,0,0,1,5.313-.949,2,2,0,0,1,1.318,1.88v28.089a2,2,0,0,1-.587,1.415c-2.427,2.423-11.008,10.926-13.349,13.245v4.5a2,2,0,0,1-4,0v-5.335a2,2,0,0,1,.593-1.421c.1-.1,9.851-9.757,13.343-13.235v-25.12a3.155,3.155,0,0,0-.443.283c-.75.57-1.831,1.86-2.72,4.772-1.027,3.363-1.547,8.049-1.547,13.926a2,2,0,0,1-.586,1.414L507.65,714.546a2,2,0,0,1-3.364-1.861l2.395-10.451,0-.018c.357-1.492-.019-2.512-.575-2.748-.476-.2-1.149.21-1.673,1.028-1.7,2.647-4.121,10.034-5.018,13.013v15.412A2,2,0,0,1,497.42,730.919Z" transform="translate(-445.159 -681.534)" fill="#4b8b89"/><path d="M0-2H20.9a2,2,0,0,1,2,2V10.451a2,2,0,0,1-2,2H0a2,2,0,0,1-2-2V0A2,2,0,0,1,0-2ZM18.9,2H2V8.451H18.9Z" transform="translate(10.452 47.385)" fill="#4b8b89"/><path d="M466.589,730.919a2,2,0,0,1-2-2V713.507c-.9-2.979-3.314-10.365-5.016-13.01-.526-.82-1.2-1.233-1.675-1.03-.556.237-.931,1.257-.575,2.748l0,.018,2.395,10.451a2,2,0,0,1-3.364,1.861L446.016,704.2a2,2,0,0,1-.586-1.414c0-5.878-.521-10.563-1.547-13.927-.889-2.912-1.97-4.2-2.72-4.772a3.15,3.15,0,0,0-.442-.283v25.025c4.036,3.546,12.981,12.948,13.385,13.373a2,2,0,0,1,.55,1.378v5.335a2,2,0,0,1-4,0v-4.534c-2.19-2.29-10.3-10.722-13.2-13.075a2,2,0,0,1-.739-1.552V681.668a2,2,0,0,1,1.318-1.88,5.973,5.973,0,0,1,5.312.949c1.838,1.289,3.279,3.548,4.281,6.715a51.193,51.193,0,0,1,1.794,14.506l4.844,4.843-.84-3.666c-.913-3.834.8-6.453,2.9-7.349a4.761,4.761,0,0,1,3.618-.029,6.382,6.382,0,0,1,2.989,2.577c2.425,3.766,5.442,13.882,5.569,14.311a2,2,0,0,1,.083.569v15.7A2,2,0,0,1,466.589,730.919Z" transform="translate(-438.721 -681.534)" fill="#4b8b89"/></g></g><path d="M481.22,647.977h0a2,2,0,0,1,1.793,1.115l5.805,11.764,12.982,1.887a2,2,0,0,1,1.108,3.412l-9.4,9.157,2.217,12.929a2,2,0,0,1-2.9,2.108l-11.611-6.1-11.611,6.1a2,2,0,0,1-2.9-2.108l2.217-12.929-9.4-9.157a2,2,0,0,1,1.108-3.412l12.983-1.887,5.812-11.764A2,2,0,0,1,481.22,647.977Zm15.995,18.141L487.2,664.663a2,2,0,0,1-1.506-1.094l-4.478-9.074-4.484,9.075a2,2,0,0,1-1.505,1.093l-10.012,1.455,7.247,7.062a2,2,0,0,1,.575,1.77l-1.71,9.971,8.955-4.708a2,2,0,0,1,1.861,0l8.955,4.708-1.71-9.971a2,2,0,0,1,.575-1.77Z" transform="translate(-441.156 -649.977)" fill="#4b8b89"/></g></g></svg>