<svg xmlns="http://www.w3.org/2000/svg" xmlns:xlink="http://www.w3.org/1999/xlink" width="40" height="40" viewBox="0 0 40 40"><defs><clipPath id="a"><rect width="40" height="40" transform="translate(0 0)" fill="#b7cc33"/></clipPath></defs><g transform="translate(0 0)" clip-path="url(#a)"><path d="M39.787,16.592a19.788,19.788,0,0,0-9.479-13.76A19.09,19.09,0,0,0,21.6.064,2.224,2.224,0,0,1,21.3,0H18.794c-.721.1-1.445.178-2.162.3A19.66,19.66,0,0,0,5,6.82,19.71,19.71,0,0,0,.174,17.363c-.067.476-.117.954-.174,1.431V21.3c.1.747.177,1.5.312,2.24A19.746,19.746,0,0,0,7.419,35.6a19.658,19.658,0,0,0,9.908,4.309c.488.069.978.122,1.468.182H21.3c.746-.1,1.5-.176,2.238-.31A20.1,20.1,0,0,0,40,22.071c.028-.257.064-.514.1-.771V18.794c-.1-.734-.172-1.474-.308-2.2m-10.169-1.3a1,1,0,0,0-.419.873c-.188,5.272-2.429,9.391-7.193,11.784a12.76,12.76,0,0,1-12.551-.464,1.665,1.665,0,0,1-.194-.13c-.016-.012-.016-.046-.028-.082a9.377,9.377,0,0,0,6.617-1.9,4.756,4.756,0,0,1-4.28-3.224h1.91c-2.374-1.069-3.62-2.675-3.482-4.6.319.118.626.255.947.346s.635.128,1.069.211a4.768,4.768,0,0,1-1.41-6.19,13.17,13.17,0,0,0,9.428,4.818,12.65,12.65,0,0,1,.01-1.565,4.371,4.371,0,0,1,2.976-3.786,4.387,4.387,0,0,1,4.692.933.514.514,0,0,0,.587.148c.838-.306,1.681-.6,2.52-.9a4.613,4.613,0,0,1-1.805,2.31l.046.106,2.362-.64a8.025,8.025,0,0,1-1.8,1.944" transform="translate(-0.255 -0.255)" fill="#b7cc33"/></g></svg>