<svg xmlns="http://www.w3.org/2000/svg" width="70.831" height="84.129" viewBox="0 0 70.831 84.129"><g transform="translate(2 2)"><path d="M326.711,687.4a22.033,22.033,0,0,1,22.05,22.05,23.111,23.111,0,0,1-1.192,7.286,24.9,24.9,0,0,1-3.082,6.206,21.809,21.809,0,0,1-7.928,7.2v2.7a2,2,0,0,1-2,2H318.565a2,2,0,0,1-2-2v-2.725a21.942,21.942,0,0,1-7.678-7.188,25.3,25.3,0,0,1-3.04-6.2,23.255,23.255,0,0,1-1.186-7.281,22.033,22.033,0,0,1,22.05-22.05Zm5.848,43.441v-2a2,2,0,0,1,1.284-1.867,17.068,17.068,0,0,0,7.342-6.291,20.9,20.9,0,0,0,2.588-5.209,19.118,19.118,0,0,0,.989-6.027,18.05,18.05,0,1,0-36.1,0,19.262,19.262,0,0,0,.985,6.03,21.3,21.3,0,0,0,2.561,5.216,17.105,17.105,0,0,0,7.108,6.292,2,2,0,0,1,1.25,1.854v2Z" transform="translate(-293.294 -676.031)" fill="#4b8b89"/><path d="M0,8.683a2,2,0,0,1-2-2V0A2,2,0,0,1,0-2,2,2,0,0,1,2,0V6.683A2,2,0,0,1,0,8.683Z" transform="translate(33.416)" fill="#4b8b89"/><path d="M6.683,2H0A2,2,0,0,1-2,0,2,2,0,0,1,0-2H6.683a2,2,0,0,1,2,2A2,2,0,0,1,6.683,2Z" transform="translate(60.148 33.416)" fill="#4b8b89"/><path d="M6.683,2H0A2,2,0,0,1-2,0,2,2,0,0,1,0-2H6.683a2,2,0,0,1,2,2A2,2,0,0,1,6.683,2Z" transform="translate(0 33.416)" fill="#4b8b89"/><path d="M7.091,9.091A1.994,1.994,0,0,1,5.677,8.5L-1.414,1.414a2,2,0,0,1,0-2.828,2,2,0,0,1,2.828,0L8.506,5.676A2,2,0,0,1,7.091,9.091Z" transform="translate(7.421 7.424)" fill="#4b8b89"/><path d="M0,9.091A1.994,1.994,0,0,1-1.414,8.5a2,2,0,0,1,0-2.828L5.676-1.414a2,2,0,0,1,2.828,0,2,2,0,0,1,0,2.828L1.414,8.5A1.994,1.994,0,0,1,0,9.091Z" transform="translate(52.314 7.424)" fill="#4b8b89"/><g transform="translate(25.119 63.421)"><path d="M16.708,2H0A2,2,0,0,1-2,0,2,2,0,0,1,0-2H16.708a2,2,0,0,1,2,2A2,2,0,0,1,16.708,2Z" fill="#4b8b89"/><path d="M16.708,2H0A2,2,0,0,1-2,0,2,2,0,0,1,0-2H16.708a2,2,0,0,1,2,2A2,2,0,0,1,16.708,2Z" transform="translate(0 6.683)" fill="#4b8b89"/><path d="M16.708,2H0A2,2,0,0,1-2,0,2,2,0,0,1,0-2H16.708a2,2,0,0,1,2,2A2,2,0,0,1,16.708,2Z" transform="translate(0 13.366)" fill="#4b8b89"/><path d="M0,5.341a2,2,0,0,1-2-2V0A2,2,0,0,1,0-2,2,2,0,0,1,2,0V3.341A2,2,0,0,1,0,5.341Z" transform="translate(8.354 13.366)" fill="#4b8b89"/></g></g></svg>