<svg xmlns="http://www.w3.org/2000/svg" xmlns:xlink="http://www.w3.org/1999/xlink" width="21.961" height="21.957" viewBox="0 0 21.961 21.957"><defs><clipPath id="a"><rect width="21.961" height="21.957" fill="#676767"/></clipPath></defs><g transform="translate(0 0)" clip-path="url(#a)"><path d="M43.985,8.32a.547.547,0,0,0-.535.527A.576.576,0,0,0,44,9.389a.545.545,0,0,0,.515-.546.527.527,0,0,0-.531-.523Z" transform="translate(-26.621 -5.097)" fill="#676767"/><path d="M19.463.039A1.089,1.089,0,0,1,19.343,0H2.614c-.163.043-.333.074-.492.128A2.963,2.963,0,0,0,.043,2.46.964.964,0,0,1,0,2.572V19.386c.043.147.081.3.128.445a2.976,2.976,0,0,0,2.851,2.126h16a2.976,2.976,0,0,0,2.986-2.979v-16A2.971,2.971,0,0,0,19.467.043ZM10.988,16.992a6.013,6.013,0,1,1,6-6.011,6.015,6.015,0,0,1-6,6.011M17.368,5.577A1.852,1.852,0,0,1,15.54,3.749a1.833,1.833,0,0,1,1.836-1.817,1.811,1.811,0,0,1,1.809,1.832,1.834,1.834,0,0,1-1.817,1.813" transform="translate(0 0)" fill="#676767"/><path d="M20.868,16.15A4.723,4.723,0,1,0,25.6,20.868a4.721,4.721,0,0,0-4.729-4.718" transform="translate(-9.895 -9.895)" fill="#676767"/></g></svg>