<svg xmlns="http://www.w3.org/2000/svg" xmlns:xlink="http://www.w3.org/1999/xlink" width="22.039" height="22" viewBox="0 0 22.039 22"><defs><clipPath id="a"><rect width="22.039" height="22" fill="#676767"/></clipPath></defs><g transform="translate(0 0)" clip-path="url(#a)"><path d="M0,19.366V2.556c0-.039.039-.077.039-.116A2.921,2.921,0,0,1,2.13.116c.155-.039.31-.077.5-.116H19.405c.039,0,.077.039.116.039a3,3,0,0,1,2.363,2.014,3.227,3.227,0,0,1,.155.581V19.366c0,.039-.039.077-.039.155A2.991,2.991,0,0,1,19.056,22H3.021A2.986,2.986,0,0,1,.155,19.87c-.039-.194-.116-.349-.155-.5M11.775,9.722h-.039V9.141a.411.411,0,0,0-.465-.465h-1.9c-.349,0-.5.155-.5.5v8.134c0,.387.155.542.542.542h1.743c.465,0,.581-.116.581-.581V13.13a2.594,2.594,0,0,1,.426-1.472,1.331,1.331,0,0,1,1.394-.62,1.245,1.245,0,0,1,1.2.968,5.2,5.2,0,0,1,.155,1.356c.039,1.317,0,2.673,0,3.989,0,.387.155.5.5.5h1.9c.387,0,.542-.155.542-.542V12.859a10.516,10.516,0,0,0-.194-1.9A3.024,3.024,0,0,0,16.539,9.1,3.136,3.136,0,0,0,14.6,8.56a2.831,2.831,0,0,0-2.827,1.162M7.514,13.246V9.257c0-.5-.116-.62-.62-.62H5.19c-.387,0-.542.155-.542.542v8.1c0,.387.194.542.581.542h1.7c.465,0,.62-.155.62-.581-.039-1.356-.039-2.673-.039-3.989M7.94,5.965A1.86,1.86,0,0,0,6.081,4.106a1.859,1.859,0,1,0,0,3.718A1.86,1.86,0,0,0,7.94,5.965" transform="translate(0 0)" fill="#676767"/></g></svg>