<svg xmlns="http://www.w3.org/2000/svg"><symbol id="arrow-down" viewBox="0 0 14 8"><defs><clipPath id="a"><path fill="none" stroke="#2f3188" d="M0 0h8v14H0z"/></clipPath></defs><g clip-path="url(#a)" transform="rotate(90 7 7)"><path d="m1 13 6-6-6-6" fill="none" stroke="#2f3188" stroke-linecap="round" stroke-linejoin="round" stroke-width="2"/></g></symbol><symbol id="instagram" viewBox="0 0 21.961 21.957"><defs><clipPath id="a"><path fill="#676767" d="M0 0h21.961v21.957H0z"/></clipPath></defs><g clip-path="url(#a)" fill="#676767"><path d="M17.364 3.223a.547.547 0 0 0-.535.527.576.576 0 0 0 .55.542.545.545 0 0 0 .515-.546.527.527 0 0 0-.531-.523Z"/><path d="M19.463.039a1.089 1.089 0 0 1-.12-.039H2.614c-.163.043-.333.074-.492.128A2.963 2.963 0 0 0 .043 2.46.964.964 0 0 1 0 2.572v16.814c.043.147.081.3.128.445a2.976 2.976 0 0 0 2.851 2.126h16a2.976 2.976 0 0 0 2.986-2.979v-16A2.971 2.971 0 0 0 19.467.043Zm-8.475 16.953a6.013 6.013 0 1 1 6-6.011 6.015 6.015 0 0 1-6 6.011m6.38-11.415a1.852 1.852 0 0 1-1.828-1.828 1.833 1.833 0 0 1 1.836-1.817 1.811 1.811 0 0 1 1.809 1.832 1.834 1.834 0 0 1-1.817 1.813"/><path d="M10.973 6.255a4.723 4.723 0 1 0 4.732 4.718 4.721 4.721 0 0 0-4.729-4.718"/></g></symbol><symbol id="linkedin" viewBox="0 0 22.039 22"><defs><clipPath id="a"><path fill="#676767" d="M0 0h22.039v22H0z"/></clipPath></defs><g clip-path="url(#a)"><path d="M0 19.366V2.556c0-.039.039-.077.039-.116A2.921 2.921 0 0 1 2.13.116c.155-.039.31-.077.5-.116h16.775c.039 0 .077.039.116.039a3 3 0 0 1 2.363 2.014 3.227 3.227 0 0 1 .155.581v16.732c0 .039-.039.077-.039.155A2.991 2.991 0 0 1 19.056 22H3.021a2.986 2.986 0 0 1-2.866-2.13c-.039-.194-.116-.349-.155-.5m11.775-9.648h-.039v-.581a.411.411 0 0 0-.465-.465h-1.9c-.349 0-.5.155-.5.5v8.134c0 .387.155.542.542.542h1.743c.465 0 .581-.116.581-.581V13.13a2.594 2.594 0 0 1 .426-1.472 1.331 1.331 0 0 1 1.394-.62 1.245 1.245 0 0 1 1.2.968 5.2 5.2 0 0 1 .155 1.356c.039 1.317 0 2.673 0 3.989 0 .387.155.5.5.5h1.9c.387 0 .542-.155.542-.542v-4.45a10.516 10.516 0 0 0-.194-1.9A3.024 3.024 0 0 0 16.539 9.1a3.136 3.136 0 0 0-1.939-.54 2.831 2.831 0 0 0-2.827 1.162m-4.259 3.524V9.257c0-.5-.116-.62-.62-.62H5.19c-.387 0-.542.155-.542.542v8.1c0 .387.194.542.581.542h1.7c.465 0 .62-.155.62-.581-.039-1.356-.039-2.673-.039-3.989m.43-7.286a1.86 1.86 0 0 0-1.859-1.859 1.859 1.859 0 1 0 0 3.718A1.86 1.86 0 0 0 7.94 5.965" fill="#676767"/></g></symbol><symbol id="logo" viewBox="0 0 152.82 34.24"><defs><style>.cls-1{fill:#d51920}</style></defs><g id="Camada_2" data-name="Camada 2"><g id="Camada_1-2" data-name="Camada 1"><path class="cls-1" d="M22.48 16.76A7 7 0 0 1 27.11 19a7.78 7.78 0 0 1 2 5.62 8.91 8.91 0 0 1-2.92 7q-2.91 2.61-8.38 2.61H1.29A1.29 1.29 0 0 1 0 33V1.29A1.29 1.29 0 0 1 1.29 0h16.44a10.8 10.8 0 0 1 7.54 2.56 8.69 8.69 0 0 1 2.84 6.79 7.14 7.14 0 0 1-1.79 5.11 6.17 6.17 0 0 1-3.84 2.1Zm-14-3.89a1.29 1.29 0 0 0 1.29 1.29h6.07a4.25 4.25 0 0 0 3-1.05 3.63 3.63 0 0 0 1.12-2.79 3.26 3.26 0 0 0-1.1-2.55 4 4 0 0 0-2.73-1H9.72a1.28 1.28 0 0 0-1.29 1.31Zm7.82 14.57a4.36 4.36 0 0 0 3.09-1 3.62 3.62 0 0 0 1.1-2.81 3.38 3.38 0 0 0-1.12-2.68 4.21 4.21 0 0 0-2.92-1H9.72a1.29 1.29 0 0 0-1.29 1.29v4.93a1.29 1.29 0 0 0 1.29 1.29ZM99.65 8.77v24.05a1.42 1.42 0 0 1-1.42 1.42h-5.55a1.42 1.42 0 0 1-1.42-1.42v-24a1.41 1.41 0 0 0-1.41-1.41h-8.26a1.41 1.41 0 0 1-1.41-1.42V1.41A1.41 1.41 0 0 1 81.59 0h27.73a1.41 1.41 0 0 1 1.41 1.41v4.53a1.41 1.41 0 0 1-1.41 1.42h-8.26a1.41 1.41 0 0 0-1.41 1.41Zm44.57 24.46L142.6 29a1.58 1.58 0 0 0-1.47-1h-12.24a1.59 1.59 0 0 0-1.48 1l-1.62 4.21a1.58 1.58 0 0 1-1.48 1h-5.58a1.58 1.58 0 0 1-1.46-2.19L130.26 1a1.57 1.57 0 0 1 1.46-1h6.53a1.57 1.57 0 0 1 1.45 1l13 31.08a1.58 1.58 0 0 1-1.46 2.19h-5.54a1.58 1.58 0 0 1-1.48-1.04ZM133.54 13.3l-2 5.3a1.59 1.59 0 0 0 1.46 2.15h4.12a1.58 1.58 0 0 0 1.47-2.16l-2.07-5.3a1.58 1.58 0 0 0-2.98.01Z"/><rect class="cls-1" x="42" width="26.68" height="7.26" rx="3.63"/><rect class="cls-1" x="42" y="13.49" width="26.68" height="7.26" rx="3.63"/><rect class="cls-1" x="42" y="26.98" width="26.68" height="7.26" rx="3.63"/></g></g></symbol></svg>