<svg xmlns="http://www.w3.org/2000/svg"><symbol id="arrow-down" viewBox="0 0 14 8"><defs><clipPath id="a"><path fill="none" stroke="#2f3188" d="M0 0h8v14H0z"/></clipPath></defs><g clip-path="url(#a)" transform="rotate(90 7 7)"><path d="m1 13 6-6-6-6" fill="none" stroke="#2f3188" stroke-linecap="round" stroke-linejoin="round" stroke-width="2"/></g></symbol><symbol id="arrow-red" viewBox="0 0 23 14"><defs><clipPath id="a"><path fill="none" stroke="#d93731" d="M0 0h8v14H0z"/></clipPath></defs><g clip-path="url(#a)" transform="translate(15)"><path d="m1 13 6-6-6-6" fill="none" stroke="#d93731" stroke-linecap="round" stroke-linejoin="round" stroke-width="2"/></g><path fill="none" stroke="#d83731" stroke-width="2" d="M0 7h21"/></symbol><symbol id="ico-missao" viewBox="0 0 84.133 84.129"><g fill="#4b8b89"><path d="M31.016 64.033a2 2 0 0 1-1.414-.586l-12.869-12.87a2 2 0 0 1 0-2.827c.4-.4 40.042-40.148 42.6-42.7 1.889-1.889 5.834-3.593 12.06-5.206 4.4-1.14 8.252-1.786 8.414-1.813a2 2 0 0 1 2.3 2.3c-.027.162-.673 4.015-1.813 8.412-1.614 6.225-3.319 10.169-5.211 12.059L32.432 63.45a2 2 0 0 1-1.416.583ZM20.974 49.162l10.042 10.043L72.254 17.97a11.915 11.915 0 0 0 2.2-3.971 54.971 54.971 0 0 0 1.962-6.234c.505-1.947.914-3.808 1.209-5.254-1.446.295-3.309.7-5.256 1.209a55.08 55.08 0 0 0-6.236 1.962 11.927 11.927 0 0 0-3.971 2.193 97370.267 97370.267 0 0 0-41.188 41.287Z" transform="translate(2 2)"/><path d="M36.191 58.862a1.994 1.994 0 0 1-1.415-.587l-12.887-12.9a2 2 0 0 1 0-2.828 2 2 0 0 1 2.828 0L37.604 55.45a2 2 0 0 1-1.413 3.412Z" transform="translate(2 2)"/><path d="M31.016 82.129a2 2 0 0 1-1.986-2.232l2.4-20.491a2 2 0 0 1 3.973.464l-1.728 14.775 8.854-8.854a23.169 23.169 0 0 0 4.69-6.976c.444-1.333 1.19-5.205 1.19-16.163a2 2 0 0 1 4 0c0 8.788-.469 14.651-1.4 17.428-.995 2.983-3.906 6.789-5.656 8.539L32.43 81.542a2 2 0 0 1-1.414.587ZM-.001 51.11a2 2 0 0 1-1.413-3.414l12.923-12.923c1.779-1.778 5.491-4.78 8.428-5.762 3.538-1.179 11.381-1.3 16.973-1.286h.57a2 2 0 0 1 0 4h-1.606c-1.756 0-4.314.016-6.917.134-4.694.212-6.807.632-7.754.948-1.918.642-5.058 2.99-6.866 4.8l-8.819 8.819 14.858-1.816a2 2 0 0 1 .485 3.97L.242 51.101a2.009 2.009 0 0 1-.243.009ZM1.29 80.889a2 2 0 0 1-1.943-2.474c.043-.178 1.08-4.41 2.576-9.155.886-2.811 1.749-5.213 2.565-7.139a17.482 17.482 0 0 1 3.143-5.379c3.941-3.939 8.714-4.458 11.878-1.293a2.001 2.001 0 0 1-2.831 2.829 2.8 2.8 0 0 0-2.652-.834 7.234 7.234 0 0 0-3.569 2.128c-.565.565-2.156 2.758-4.715 10.872a153.193 153.193 0 0 0-1.65 5.633c1.57-.435 3.554-1.008 5.61-1.664 8.094-2.582 10.286-4.178 10.852-4.744.627-.627 3.637-3.876 1.292-6.221a2.001 2.001 0 1 1 2.832-2.829 6.808 6.808 0 0 1 1.924 6.222 11.035 11.035 0 0 1-3.217 5.655 17.579 17.579 0 0 1-5.366 3.15c-1.921.82-4.317 1.689-7.119 2.583a157.868 157.868 0 0 1-9.128 2.6 2 2 0 0 1-.482.06Z" transform="translate(2 2)"/></g></symbol><symbol id="ico-search" viewBox="0 0 47.86 47.86"><g data-name="Camada 2"><path d="M47.86 41.77 31.39 25.3a16.84 16.84 0 1 0-6.09 6.09l16.47 16.47Zm-39-16.91a11.34 11.34 0 1 1 16 0 11.36 11.36 0 0 1-16.04 0Z" style="fill:#4d4d4d" data-name="Isolation Mode"/></g></symbol><symbol id="ico-valores" viewBox="0 0 84.129 89.932"><g fill="#4b8b89"><path d="M48.774 45.385h20.9a2 2 0 0 1 2 2v10.451a2 2 0 0 1-2 2h-20.9a2 2 0 0 1-2-2V47.385a2 2 0 0 1 2-2Zm18.9 4h-16.9v6.451h16.9Z" transform="translate(2 30.096)"/><path d="M52.261 49.385a2 2 0 0 1-2-2v-15.7a2 2 0 0 1 .083-.569c.127-.429 3.144-10.545 5.571-14.314a6.379 6.379 0 0 1 2.987-2.575 4.76 4.76 0 0 1 3.618.029c2.1.9 3.813 3.514 2.9 7.349l-.84 3.666 4.843-4.843a51.189 51.189 0 0 1 1.794-14.505c1-3.167 2.443-5.426 4.282-6.715a5.973 5.973 0 0 1 5.313-.949A2 2 0 0 1 82.13.139v28.089a2 2 0 0 1-.587 1.415 8893.834 8893.834 0 0 1-13.349 13.245v4.5a2 2 0 0 1-4 0v-5.335a2 2 0 0 1 .593-1.421c.1-.1 9.851-9.757 13.343-13.235V2.277a3.155 3.155 0 0 0-.443.283c-.75.57-1.831 1.86-2.72 4.772-1.027 3.363-1.547 8.049-1.547 13.926a2 2 0 0 1-.586 1.414l-10.343 10.34a2 2 0 0 1-3.364-1.861L61.522 20.7v-.018c.357-1.492-.019-2.512-.575-2.748-.476-.2-1.149.21-1.673 1.028-1.7 2.647-4.121 10.034-5.018 13.013v15.412a2 2 0 0 1-1.995 1.998Zm-41.809-4h20.9a2 2 0 0 1 2 2v10.451a2 2 0 0 1-2 2h-20.9a2 2 0 0 1-2-2V47.385a2 2 0 0 1 2-2Zm18.9 4h-16.9v6.451h16.9Z" transform="translate(2 30.096)"/><path d="M27.868 49.385a2 2 0 0 1-2-2V31.973c-.9-2.979-3.314-10.365-5.016-13.01-.526-.82-1.2-1.233-1.675-1.03-.556.237-.931 1.257-.575 2.748v.018l2.395 10.451a2 2 0 0 1-3.364 1.861L7.295 22.666a2 2 0 0 1-.586-1.414c0-5.878-.521-10.563-1.547-13.927-.889-2.912-1.97-4.2-2.72-4.772A3.15 3.15 0 0 0 2 2.27v25.025c4.036 3.546 12.981 12.948 13.385 13.373a2 2 0 0 1 .55 1.378v5.335a2 2 0 0 1-4 0v-4.534c-2.19-2.29-10.3-10.722-13.2-13.075a2 2 0 0 1-.739-1.552V.134a2 2 0 0 1 1.318-1.88 5.973 5.973 0 0 1 5.312.949C6.464.492 7.905 2.751 8.907 5.918a51.193 51.193 0 0 1 1.794 14.506l4.844 4.843-.84-3.666c-.913-3.834.8-6.453 2.9-7.349a4.761 4.761 0 0 1 3.618-.029 6.382 6.382 0 0 1 2.989 2.577c2.425 3.766 5.442 13.882 5.569 14.311a2 2 0 0 1 .083.569v15.7a2 2 0 0 1-1.996 2.005Z" transform="translate(2 30.096)"/></g><path d="M40.064-2a2 2 0 0 1 1.793 1.115l5.805 11.764 12.982 1.887a2 2 0 0 1 1.108 3.412l-9.4 9.157 2.217 12.929a2 2 0 0 1-2.9 2.108l-11.611-6.1-11.611 6.1a2 2 0 0 1-2.9-2.108l2.217-12.929-9.4-9.157a2 2 0 0 1 1.108-3.412l12.983-1.887L38.267-.885A2 2 0 0 1 40.064-2Zm15.995 18.141-10.015-1.455a2 2 0 0 1-1.506-1.094L40.06 4.518l-4.484 9.075a2 2 0 0 1-1.505 1.093l-10.012 1.455 7.247 7.062a2 2 0 0 1 .575 1.77l-1.71 9.971 8.955-4.708a2 2 0 0 1 1.861 0l8.955 4.708-1.71-9.971a2 2 0 0 1 .575-1.77Z" fill="#4b8b89" transform="translate(2 2)"/></symbol><symbol id="ico-visao" viewBox="0 0 70.831 84.129"><g fill="#4b8b89"><path d="M33.417 11.369a22.033 22.033 0 0 1 22.05 22.05 23.111 23.111 0 0 1-1.192 7.286 24.9 24.9 0 0 1-3.082 6.206 21.809 21.809 0 0 1-7.928 7.2v2.7a2 2 0 0 1-2 2H25.271a2 2 0 0 1-2-2v-2.725a21.942 21.942 0 0 1-7.678-7.188 25.3 25.3 0 0 1-3.04-6.2 23.255 23.255 0 0 1-1.186-7.281 22.033 22.033 0 0 1 22.05-22.05Zm5.848 43.441v-2a2 2 0 0 1 1.284-1.867 17.068 17.068 0 0 0 7.342-6.291 20.9 20.9 0 0 0 2.588-5.209 19.118 19.118 0 0 0 .989-6.027 18.05 18.05 0 1 0-36.1 0 19.262 19.262 0 0 0 .985 6.03 21.3 21.3 0 0 0 2.561 5.216 17.105 17.105 0 0 0 7.108 6.292 2 2 0 0 1 1.25 1.854v2ZM33.416 8.683a2 2 0 0 1-2-2V0a2 2 0 0 1 2-2 2 2 0 0 1 2 2v6.683a2 2 0 0 1-2 2Zm33.415 26.733h-6.683a2 2 0 0 1-2-2 2 2 0 0 1 2-2h6.683a2 2 0 0 1 2 2 2 2 0 0 1-2 2Zm-60.148 0H0a2 2 0 0 1-2-2 2 2 0 0 1 2-2h6.683a2 2 0 0 1 2 2 2 2 0 0 1-2 2Zm7.829-18.901a1.994 1.994 0 0 1-1.414-.591L6.007 8.838a2 2 0 0 1 0-2.828 2 2 0 0 1 2.828 0l7.092 7.09a2 2 0 0 1-1.415 3.415Zm37.802 0a1.994 1.994 0 0 1-1.414-.591 2 2 0 0 1 0-2.828l7.09-7.086a2 2 0 0 1 2.828 0 2 2 0 0 1 0 2.828l-7.09 7.086a1.994 1.994 0 0 1-1.414.591Z" transform="translate(2 2)"/><path d="M16.708 2H0a2 2 0 0 1-2-2 2 2 0 0 1 2-2h16.708a2 2 0 0 1 2 2 2 2 0 0 1-2 2Zm0 6.683H0a2 2 0 0 1-2-2 2 2 0 0 1 2-2h16.708a2 2 0 0 1 2 2 2 2 0 0 1-2 2Zm0 6.683H0a2 2 0 0 1-2-2 2 2 0 0 1 2-2h16.708a2 2 0 0 1 2 2 2 2 0 0 1-2 2Z" transform="translate(27.119 65.421)"/><path d="M8.354 18.707a2 2 0 0 1-2-2v-3.341a2 2 0 0 1 2-2 2 2 0 0 1 2 2v3.341a2 2 0 0 1-2 2Z" transform="translate(27.119 65.421)"/></g></symbol><symbol id="instagram" viewBox="0 0 21.961 21.957"><defs><clipPath id="a"><path fill="#676767" d="M0 0h21.961v21.957H0z"/></clipPath></defs><g clip-path="url(#a)" fill="#676767"><path d="M17.364 3.223a.547.547 0 0 0-.535.527.576.576 0 0 0 .55.542.545.545 0 0 0 .515-.546.527.527 0 0 0-.531-.523Z"/><path d="M19.463.039a1.089 1.089 0 0 1-.12-.039H2.614c-.163.043-.333.074-.492.128A2.963 2.963 0 0 0 .043 2.46.964.964 0 0 1 0 2.572v16.814c.043.147.081.3.128.445a2.976 2.976 0 0 0 2.851 2.126h16a2.976 2.976 0 0 0 2.986-2.979v-16A2.971 2.971 0 0 0 19.467.043Zm-8.475 16.953a6.013 6.013 0 1 1 6-6.011 6.015 6.015 0 0 1-6 6.011m6.38-11.415a1.852 1.852 0 0 1-1.828-1.828 1.833 1.833 0 0 1 1.836-1.817 1.811 1.811 0 0 1 1.809 1.832 1.834 1.834 0 0 1-1.817 1.813"/><path d="M10.973 6.255a4.723 4.723 0 1 0 4.732 4.718 4.721 4.721 0 0 0-4.729-4.718"/></g></symbol><symbol id="linkedin" viewBox="0 0 22.039 22"><defs><clipPath id="a"><path fill="#676767" d="M0 0h22.039v22H0z"/></clipPath></defs><g clip-path="url(#a)"><path d="M0 19.366V2.556c0-.039.039-.077.039-.116A2.921 2.921 0 0 1 2.13.116c.155-.039.31-.077.5-.116h16.775c.039 0 .077.039.116.039a3 3 0 0 1 2.363 2.014 3.227 3.227 0 0 1 .155.581v16.732c0 .039-.039.077-.039.155A2.991 2.991 0 0 1 19.056 22H3.021a2.986 2.986 0 0 1-2.866-2.13c-.039-.194-.116-.349-.155-.5m11.775-9.648h-.039v-.581a.411.411 0 0 0-.465-.465h-1.9c-.349 0-.5.155-.5.5v8.134c0 .387.155.542.542.542h1.743c.465 0 .581-.116.581-.581V13.13a2.594 2.594 0 0 1 .426-1.472 1.331 1.331 0 0 1 1.394-.62 1.245 1.245 0 0 1 1.2.968 5.2 5.2 0 0 1 .155 1.356c.039 1.317 0 2.673 0 3.989 0 .387.155.5.5.5h1.9c.387 0 .542-.155.542-.542v-4.45a10.516 10.516 0 0 0-.194-1.9A3.024 3.024 0 0 0 16.539 9.1a3.136 3.136 0 0 0-1.939-.54 2.831 2.831 0 0 0-2.827 1.162m-4.259 3.524V9.257c0-.5-.116-.62-.62-.62H5.19c-.387 0-.542.155-.542.542v8.1c0 .387.194.542.581.542h1.7c.465 0 .62-.155.62-.581-.039-1.356-.039-2.673-.039-3.989m.43-7.286a1.86 1.86 0 0 0-1.859-1.859 1.859 1.859 0 1 0 0 3.718A1.86 1.86 0 0 0 7.94 5.965" fill="#676767"/></g></symbol><symbol id="logo" viewBox="0 0 152.82 34.24"><defs><style>.cls-1{fill:#d51920}</style></defs><g id="Camada_2" data-name="Camada 2"><g id="Camada_1-2" data-name="Camada 1"><path class="cls-1" d="M22.48 16.76A7 7 0 0 1 27.11 19a7.78 7.78 0 0 1 2 5.62 8.91 8.91 0 0 1-2.92 7q-2.91 2.61-8.38 2.61H1.29A1.29 1.29 0 0 1 0 33V1.29A1.29 1.29 0 0 1 1.29 0h16.44a10.8 10.8 0 0 1 7.54 2.56 8.69 8.69 0 0 1 2.84 6.79 7.14 7.14 0 0 1-1.79 5.11 6.17 6.17 0 0 1-3.84 2.1Zm-14-3.89a1.29 1.29 0 0 0 1.29 1.29h6.07a4.25 4.25 0 0 0 3-1.05 3.63 3.63 0 0 0 1.12-2.79 3.26 3.26 0 0 0-1.1-2.55 4 4 0 0 0-2.73-1H9.72a1.28 1.28 0 0 0-1.29 1.31Zm7.82 14.57a4.36 4.36 0 0 0 3.09-1 3.62 3.62 0 0 0 1.1-2.81 3.38 3.38 0 0 0-1.12-2.68 4.21 4.21 0 0 0-2.92-1H9.72a1.29 1.29 0 0 0-1.29 1.29v4.93a1.29 1.29 0 0 0 1.29 1.29ZM99.65 8.77v24.05a1.42 1.42 0 0 1-1.42 1.42h-5.55a1.42 1.42 0 0 1-1.42-1.42v-24a1.41 1.41 0 0 0-1.41-1.41h-8.26a1.41 1.41 0 0 1-1.41-1.42V1.41A1.41 1.41 0 0 1 81.59 0h27.73a1.41 1.41 0 0 1 1.41 1.41v4.53a1.41 1.41 0 0 1-1.41 1.42h-8.26a1.41 1.41 0 0 0-1.41 1.41Zm44.57 24.46L142.6 29a1.58 1.58 0 0 0-1.47-1h-12.24a1.59 1.59 0 0 0-1.48 1l-1.62 4.21a1.58 1.58 0 0 1-1.48 1h-5.58a1.58 1.58 0 0 1-1.46-2.19L130.26 1a1.57 1.57 0 0 1 1.46-1h6.53a1.57 1.57 0 0 1 1.45 1l13 31.08a1.58 1.58 0 0 1-1.46 2.19h-5.54a1.58 1.58 0 0 1-1.48-1.04ZM133.54 13.3l-2 5.3a1.59 1.59 0 0 0 1.46 2.15h4.12a1.58 1.58 0 0 0 1.47-2.16l-2.07-5.3a1.58 1.58 0 0 0-2.98.01Z"/><rect class="cls-1" x="42" width="26.68" height="7.26" rx="3.63"/><rect class="cls-1" x="42" y="13.49" width="26.68" height="7.26" rx="3.63"/><rect class="cls-1" x="42" y="26.98" width="26.68" height="7.26" rx="3.63"/></g></g></symbol></svg>